<svg width="200" height="225" viewBox="0 0 200 225" fill="none" xmlns="http://www.w3.org/2000/svg">
<g clip-path="url(#clip0_1_3)">
<g clip-path="url(#clip1_1_3)">
<g clip-path="url(#clip2_1_3)">
<g clip-path="url(#clip3_1_3)">
<path d="M13.1006 142.012L15.4294 144.924L14.265 141.139C13.9737 139.392 11.9363 141.43 13.1006 142.012ZM15.7206 140.266C16.5937 141.721 17.4675 143.177 17.4675 144.632C17.4675 146.671 19.2144 147.544 20.6694 148.126C18.6312 145.797 17.4669 139.392 15.7206 140.266ZM127.511 16.8306C132.459 16.8306 137.117 16.2481 142.358 17.4125C155.167 20.615 165.939 27.0194 173.217 36.0444L193.596 68.65C194.469 76.8012 196.216 85.8262 195.924 95.7244C197.963 95.7244 197.671 92.8131 200 92.2306C197.671 98.0531 196.506 105.331 195.924 113.774C194.469 109.116 195.924 102.129 196.216 98.3444C194.178 101.547 193.013 99.2175 193.013 97.7619C193.304 95.4331 192.14 95.7237 191.266 94.8506C188.064 91.9394 186.026 88.7369 183.697 83.7881C185.153 80.0037 185.444 74.4725 180.786 71.5612C179.331 70.6881 177.584 69.2325 176.711 66.9031C175.546 63.7006 173.508 59.9162 174.09 54.9675C174.381 53.5119 169.723 58.17 167.103 56.1319C155.749 48.2719 144.396 39.2469 130.713 31.6775C123.435 31.6775 118.195 29.0575 115.575 25.855C113.246 22.9437 114.993 19.1594 118.486 18.8681C120.524 18.8681 122.853 18.2856 124.6 19.4506C124.891 18.2862 126.056 16.8306 127.511 16.8306ZM98.69 10.1344L99.2725 10.4256C102.184 11.0081 103.639 15.0837 106.841 13.6281C106.841 15.6662 107.132 17.7037 106.55 19.1594C105.677 21.4881 103.056 21.4881 101.019 21.4881C81.5138 20.3237 70.16 28.475 58.2244 35.4619C55.0219 37.5 51.5287 38.9556 48.9081 41.5756C36.39 53.2206 22.7075 63.9919 19.505 85.535L16.885 109.407C16.5938 112.027 13.6825 114.647 14.265 117.849L16.3025 132.114C14.2644 130.076 13.1 132.697 13.6825 133.861C13.9738 134.734 15.1381 137.646 16.885 135.026C19.2138 139.392 21.5431 147.835 24.745 151.619C34.6431 163.264 47.4525 173.744 57.9331 184.225C60.5531 183.643 62.5913 183.642 63.1731 181.896C64.0463 183.642 62.3 185.389 60.8444 185.681C65.5025 188.592 70.7425 191.212 77.7294 191.794C86.7544 192.376 95.1969 193.832 103.057 195.87C107.133 194.706 111.208 194.123 115.575 193.832C117.031 193.832 117.904 191.503 119.651 190.921L119.942 188.009C121.689 190.629 121.398 187.136 120.233 185.389C122.271 187.136 122.853 188.592 123.726 189.756C123.726 188.883 126.055 185.681 126.056 189.465L126.637 185.681C127.511 185.098 127.802 188.883 128.676 186.262C129.549 183.642 131.296 185.68 133.042 184.807C132.46 185.971 132.751 188.301 134.789 186.845L137.118 184.807C138.574 188.301 140.903 186.845 142.067 186.262C154.876 178.111 167.686 168.504 179.912 158.897L179.621 162.682L181.077 158.024C182.532 159.479 183.697 158.315 184.279 157.442C186.026 154.531 188.355 151.619 192.14 148.999C187.482 161.517 181.951 171.416 174.964 179.567L172.052 183.061C172.052 185.099 171.47 187.719 169.141 188.009C167.977 188.301 165.648 187.427 163.901 189.174C163.028 190.338 165.939 192.667 163.61 190.921C161.572 189.465 159.534 190.921 157.205 191.503C155.458 192.086 158.369 193.832 158.952 194.996C159.534 196.161 160.116 197.325 159.826 198.781L156.623 195.287C152.839 197.326 150.509 201.11 147.307 204.021C145.851 205.186 146.434 207.224 146.434 208.97C144.396 208.97 142.067 208.387 140.903 209.552C140.029 210.717 140.32 212.464 140.32 214.211C137.409 213.919 137.118 209.552 134.498 210.426C131.878 211.008 128.967 211.299 126.637 212.755C128.384 216.249 123.726 214.211 124.309 214.792C119.942 212.172 116.158 210.134 111.499 211.881C101.601 208.679 89.3744 210.134 80.3494 211.299C80.3494 209.844 80.6406 208.388 80.0581 208.097C79.4756 209.552 77.7294 208.97 78.0206 208.97C72.4894 205.186 66.9581 202.856 61.1356 199.654C55.8956 200.237 50.9462 197.616 49.4906 196.161C45.415 192.376 40.7569 194.414 36.9725 193.541C28.8212 191.503 25.91 183.06 25.0362 177.238C24.4537 174.327 22.125 173.162 21.2519 173.453C17.4675 161.226 11.645 150.164 6.98687 138.81C5.8225 135.899 6.11375 132.987 6.11375 129.785C7.56937 130.367 9.025 130.076 8.73375 128.039C7.27812 118.432 3.785 111.154 0 104.167C2.03812 94.2688 2.32875 82.6237 6.98687 73.89C11.0625 66.03 18.6319 61.9537 23.8719 55.2581C25.6187 52.9294 25.6187 49.7269 27.3656 47.6894C33.1881 41.8669 39.0106 35.7531 45.415 30.5131C48.3263 28.1844 51.8194 30.5131 56.1863 29.64C57.6419 24.4 63.4644 19.7419 68.9956 21.1975C71.3244 21.78 75.9825 15.6662 77.4381 15.0837C79.7669 14.2106 78.6025 17.4125 78.6025 19.4506C84.1338 15.0837 91.7031 12.755 98.69 10.1344Z" fill="white"/>
<g clip-path="url(#clip4_1_3)">
<g clip-path="url(#clip5_1_3)">
<g clip-path="url(#clip6_1_3)">
<g clip-path="url(#clip7_1_3)">
<g clip-path="url(#clip8_1_3)">
<g clip-path="url(#clip9_1_3)">
<g clip-path="url(#clip10_1_3)">
<path d="M55.3797 118.657V96.2086H61.0663V118.657C61.0663 120.79 60.6112 122.611 59.7011 124.117C58.791 125.63 57.5404 126.787 55.9492 127.589C54.3581 128.391 52.556 128.791 50.5429 128.791C48.4997 128.791 46.6855 128.442 45.1004 127.743C43.5213 127.044 42.2766 125.977 41.3665 124.542C40.4625 123.108 40.0104 121.294 40.0104 119.1H45.7061C45.7061 120.938 46.1521 122.252 47.0441 123.042C47.9361 123.825 49.1024 124.217 50.5429 124.217C51.5012 124.217 52.339 124 53.0562 123.566C53.7795 123.132 54.346 122.505 54.7559 121.685C55.1717 120.86 55.3797 119.85 55.3797 118.657ZM80.2236 123.448V112.211C80.2236 110.975 79.8831 109.99 79.202 109.254C78.5149 108.519 77.4812 108.151 76.101 108.151C75.2753 108.151 74.552 108.296 73.9312 108.585C73.3165 108.869 72.8403 109.254 72.5028 109.743C72.1653 110.225 71.9965 110.776 71.9965 111.397H66.5178C66.5178 110.119 66.9217 108.917 67.7293 107.79C68.543 106.663 69.6881 105.753 71.1648 105.059C72.6414 104.372 74.3893 104.029 76.4084 104.029C78.2045 104.029 79.8017 104.33 81.2 104.933C82.5983 105.536 83.6982 106.446 84.4999 107.663C85.3015 108.887 85.7023 110.418 85.7023 112.256V122.788C85.7023 123.903 85.7836 124.889 85.9464 125.745C86.1031 126.601 86.3291 127.342 86.6244 127.969V128.348H81.0192C80.7721 127.776 80.5762 127.031 80.4315 126.115C80.2929 125.205 80.2236 124.316 80.2236 123.448ZM81.0192 113.802L81.0644 117.183H77.3125C75.3717 117.183 73.9101 117.539 72.9277 118.25C71.9513 118.961 71.4631 119.928 71.4631 121.152C71.4631 122.092 71.7856 122.876 72.4305 123.503C73.0814 124.129 73.9945 124.443 75.1698 124.443C76.2427 124.443 77.1799 124.226 77.9815 123.792C78.7891 123.358 79.419 122.822 79.871 122.183C80.3291 121.538 80.5641 120.938 80.5762 120.384L82.321 122.834C82.1463 123.436 81.8479 124.078 81.426 124.759C81.0101 125.446 80.4586 126.094 79.7716 126.703C79.0905 127.312 78.2828 127.812 77.3486 128.204C76.4144 128.596 75.3295 128.791 74.094 128.791C72.5329 128.791 71.1407 128.481 69.9172 127.86C68.6997 127.245 67.7414 126.396 67.0422 125.311C66.3431 124.232 65.9935 123.014 65.9935 121.658C65.9935 119.127 66.9428 117.186 68.8413 115.836C70.7338 114.48 73.425 113.802 76.9147 113.802H81.0192ZM104.543 121.839C104.543 121.339 104.417 120.881 104.163 120.465C103.904 120.055 103.407 119.672 102.672 119.317C101.936 118.967 100.855 118.645 99.4261 118.349C97.7325 117.994 96.2438 117.524 94.96 116.939C93.6702 116.348 92.6697 115.589 91.9585 114.661C91.2412 113.739 90.8826 112.605 90.8826 111.261C90.8826 109.972 91.2563 108.778 92.0037 107.681C92.745 106.584 93.8118 105.701 95.2041 105.032C96.5903 104.363 98.2327 104.029 100.131 104.029C102.132 104.029 103.853 104.363 105.294 105.032C106.74 105.701 107.849 106.605 108.621 107.745C109.392 108.884 109.778 110.174 109.778 111.614H104.308C104.308 110.674 103.959 109.848 103.259 109.137C102.56 108.42 101.511 108.061 100.113 108.061C99.2453 108.061 98.519 108.203 97.9344 108.486C97.3558 108.763 96.9218 109.122 96.6325 109.562C96.3492 110.008 96.2076 110.493 96.2076 111.017C96.2076 111.536 96.3492 111.985 96.6325 112.364C96.9218 112.75 97.416 113.091 98.1152 113.386C98.8143 113.681 99.7968 113.959 101.062 114.218C102.883 114.603 104.456 115.086 105.782 115.664C107.108 116.249 108.126 117.014 108.837 117.961C109.555 118.913 109.913 120.115 109.913 121.568C109.913 122.966 109.513 124.211 108.711 125.302C107.909 126.393 106.782 127.245 105.33 127.86C103.883 128.481 102.174 128.791 100.204 128.791C98.0097 128.791 96.1624 128.4 94.6616 127.616C93.1609 126.839 92.0248 125.844 91.2533 124.633C90.4758 123.415 90.087 122.152 90.087 120.845H95.3668C95.4271 121.785 95.6953 122.541 96.1714 123.114C96.6476 123.692 97.2503 124.108 97.9796 124.361C98.7089 124.621 99.4713 124.75 100.267 124.75C101.207 124.75 101.991 124.627 102.617 124.38C103.244 124.126 103.723 123.783 104.055 123.349C104.38 122.915 104.543 122.412 104.543 121.839ZM113.484 116.65V116.189C113.484 113.862 113.924 111.786 114.804 109.96C115.69 108.139 116.962 106.696 118.62 105.629C120.271 104.562 122.26 104.029 124.586 104.029C126.943 104.029 128.953 104.562 130.617 105.629C132.274 106.696 133.543 108.139 134.423 109.96C135.297 111.786 135.734 113.862 135.734 116.189V116.65C135.734 118.958 135.297 121.028 134.423 122.861C133.543 124.693 132.277 126.139 130.626 127.2C128.968 128.261 126.97 128.791 124.632 128.791C122.293 128.791 120.292 128.261 118.629 127.2C116.965 126.139 115.69 124.693 114.804 122.861C113.924 121.028 113.484 118.958 113.484 116.65ZM118.954 116.189V116.65C118.954 118.06 119.153 119.353 119.551 120.528C119.949 121.697 120.563 122.635 121.395 123.34C122.227 124.045 123.306 124.398 124.632 124.398C125.94 124.398 127.009 124.045 127.841 123.34C128.673 122.635 129.285 121.697 129.676 120.528C130.062 119.353 130.255 118.06 130.255 116.65V116.189C130.255 114.79 130.062 113.504 129.676 112.328C129.285 111.147 128.67 110.201 127.832 109.489C126.994 108.772 125.912 108.414 124.586 108.414C123.279 108.414 122.209 108.772 121.377 109.489C120.545 110.201 119.933 111.147 119.542 112.328C119.15 113.504 118.954 114.79 118.954 116.189ZM145.579 109.562V128.348H140.1V104.463H145.244L145.579 109.562ZM144.603 115.547L142.84 115.565C142.852 113.256 143.256 111.237 144.051 109.508C144.847 107.778 145.959 106.431 147.387 105.466C148.816 104.508 150.479 104.029 152.378 104.029C153.921 104.029 155.259 104.318 156.392 104.897C157.525 105.475 158.408 106.419 159.041 107.727C159.674 109.028 159.99 110.773 159.99 112.961V128.348H154.493V112.916C154.493 111.813 154.333 110.939 154.014 110.294C153.701 109.649 153.23 109.188 152.604 108.911C151.977 108.64 151.214 108.504 150.316 108.504C149.406 108.504 148.602 108.685 147.902 109.046C147.203 109.408 146.607 109.911 146.112 110.556C145.624 111.207 145.251 111.958 144.991 112.807C144.732 113.663 144.603 114.576 144.603 115.547Z" fill="white"/>
</g>
</g>
</g>
</g>
</g>
</g>
</g>
</g>
</g>
</g>
</g>
<defs>
<clipPath id="clip0_1_3">
<rect width="200" height="225" fill="white"/>
</clipPath>
<clipPath id="clip1_1_3">
<rect width="200" height="225" fill="white"/>
</clipPath>
<clipPath id="clip2_1_3">
<rect width="200" height="225" fill="white"/>
</clipPath>
<clipPath id="clip3_1_3">
<rect width="200" height="225" fill="white"/>
</clipPath>
<clipPath id="clip4_1_3">
<rect width="120" height="32.5828" fill="white" transform="translate(40 96.2086)"/>
</clipPath>
<clipPath id="clip5_1_3">
<rect width="120" height="32.5828" fill="white" transform="translate(40 96.2086)"/>
</clipPath>
<clipPath id="clip6_1_3">
<rect width="120" height="32.5828" fill="white" transform="translate(40 96.2086)"/>
</clipPath>
<clipPath id="clip7_1_3">
<rect width="120" height="32.5828" fill="white" transform="translate(40 96.2086)"/>
</clipPath>
<clipPath id="clip8_1_3">
<rect width="120" height="32.5828" fill="white" transform="translate(40 96.2086)"/>
</clipPath>
<clipPath id="clip9_1_3">
<rect width="120" height="32.5828" fill="white" transform="translate(40 96.2086)"/>
</clipPath>
<clipPath id="clip10_1_3">
<rect width="120" height="32.5828" fill="white" transform="translate(40 96.2086)"/>
</clipPath>
</defs>
</svg>
